<svg xmlns="http://www.w3.org/2000/svg" version="1.1" xmlns:xlink="http://www.w3.org/1999/xlink" xmlns:svgjs="http://svgjs.dev/svgjs" width="1500" height="1500" viewBox="0 0 1500 1500"><rect width="1500" height="1500" fill="#000000"></rect><g transform="matrix(0.6666666666666666,0,0,0.6666666666666666,249.39393939393938,576.1378184191441)"><svg viewBox="0 0 396 137" data-background-color="#000000" preserveAspectRatio="xMidYMid meet" height="518" width="1500" xmlns="http://www.w3.org/2000/svg" xmlns:xlink="http://www.w3.org/1999/xlink"><g id="tight-bounds" transform="matrix(1,0,0,1,0.2400000000000091,0.4742824611310823)"><svg viewBox="0 0 395.52 136.05139452572598" height="136.05139452572598" width="395.52"><g><svg viewBox="0 0 665.1875607801546 228.81193179941886" height="136.05139452572598" width="395.52"><g transform="matrix(1,0,0,1,269.66756078015464,40.598289656906076)"><svg viewBox="0 0 395.52 147.6153524856067" height="147.6153524856067" width="395.52"><g id="textblocktransform"><svg viewBox="0 0 395.52 147.6153524856067" height="147.6153524856067" width="395.52" id="textblock"><g><svg viewBox="0 0 395.52 93.71505445772874" height="93.71505445772874" width="395.52"><g transform="matrix(1,0,0,1,0,0)"><svg width="395.52" viewBox="0.43999999999999995 -37.64 166.15 40.13" height="93.71505445772874" data-palette-color="#c4f649"><path d="M2.44 0L2.44 0Q2.59-0.61 2.7-1.48 2.81-2.34 2.81-3.27L2.81-3.27Q2.81-4.13 2.69-4.94 2.56-5.76 2.44-6.35L2.44-6.35Q3.54-6.35 4.37-6.52 5.2-6.69 5.76-7.09 6.32-7.5 6.6-8.19 6.88-8.89 6.88-9.94L6.88-9.94Q6.88-11.99 6.77-13.45 6.67-14.92 6.46-15.87 6.25-16.82 5.93-17.32 5.62-17.82 5.2-17.94L5.2-17.94Q5.64-18.09 5.96-18.41 6.27-18.73 6.48-19.49 6.69-20.26 6.79-21.62 6.88-22.97 6.88-25.22L6.88-25.22Q6.88-26.27 6.6-26.97 6.32-27.66 5.76-28.06 5.2-28.47 4.37-28.64 3.54-28.81 2.44-28.81L2.44-28.81Q2.56-29.39 2.69-30.21 2.81-31.03 2.81-31.88L2.81-31.88Q2.81-32.81 2.7-33.68 2.59-34.55 2.44-35.16L2.44-35.16Q2.93-35.03 4.13-34.92 5.32-34.81 6.91-34.72 8.5-34.62 10.3-34.55 12.11-34.47 13.83-34.41 15.55-34.35 17-34.33 18.46-34.3 19.34-34.3L19.34-34.3Q20.21-34.3 21.58-34.33 22.95-34.35 24.52-34.41 26.1-34.47 27.75-34.55 29.39-34.62 30.85-34.72 32.3-34.81 33.41-34.92 34.52-35.03 35.01-35.16L35.01-35.16Q34.81-34.13 34.61-32.56 34.4-30.98 34.4-29.22L34.4-29.22Q34.4-28.2 34.47-27.21 34.55-26.22 34.63-25.4 34.72-24.58 34.83-23.97 34.94-23.36 35.01-23.07L35.01-23.07Q34.64-23.22 34.09-23.33 33.54-23.44 32.91-23.52 32.28-23.61 31.59-23.65 30.91-23.68 30.27-23.68L30.27-23.68Q29.15-23.68 28.03-23.55 26.9-23.41 25.88-23.07L25.88-23.07Q26.05-23.58 26.16-24.32 26.27-25.05 26.27-25.81L26.27-25.81Q26.27-27.05 25.84-27.8 25.42-28.54 24.76-28.93 24.1-29.32 23.32-29.43 22.53-29.54 21.83-29.54L21.83-29.54Q21.26-29.54 20.64-29.5 20.02-29.47 19.37-29.33 18.73-29.2 18.09-28.97 17.46-28.74 16.92-28.34L16.92-28.34Q16.82-27.78 16.75-27.05 16.67-26.32 16.67-25.22L16.67-25.22Q16.67-23.58 16.74-22.67 16.8-21.75 16.89-21.26L16.89-21.26Q17.55-20.97 18.43-20.85 19.31-20.73 20.24-20.73L20.24-20.73Q21.63-20.73 22.88-20.95 24.12-21.17 24.68-21.46L24.68-21.46Q24.49-20.92 24.4-19.97 24.32-19.02 24.32-17.97L24.32-17.97Q24.32-17.38 24.34-16.81 24.37-16.24 24.43-15.76 24.49-15.28 24.55-14.93 24.61-14.58 24.68-14.4L24.68-14.4Q24.46-14.53 23.97-14.66 23.49-14.79 22.84-14.92 22.19-15.04 21.42-15.12 20.65-15.21 19.85-15.21L19.85-15.21Q19.02-15.21 18.26-15.11 17.5-15.01 16.89-14.75L16.89-14.75Q16.85-14.45 16.81-14.07 16.77-13.7 16.74-13.12 16.7-12.55 16.69-11.77 16.67-10.99 16.67-9.94L16.67-9.94Q16.67-8.62 16.77-7.8 16.87-6.98 16.99-6.4L16.99-6.4Q17.58-6.08 18.24-5.87 18.9-5.66 19.57-5.55 20.24-5.44 20.87-5.41 21.51-5.37 22.07-5.37L22.07-5.37Q22.78-5.37 23.52-5.55 24.27-5.74 24.88-6.24 25.49-6.74 25.88-7.63 26.27-8.52 26.27-9.91L26.27-9.91Q26.27-10.79 26.16-11.65 26.05-12.5 25.88-13.06L25.88-13.06Q26.9-12.72 28.03-12.59 29.15-12.45 30.27-12.45L30.27-12.45Q30.91-12.45 31.59-12.49 32.28-12.52 32.91-12.61 33.54-12.7 34.09-12.81 34.64-12.92 35.01-13.06L35.01-13.06Q34.94-12.74 34.83-12.08 34.72-11.43 34.63-10.53 34.55-9.64 34.47-8.58 34.4-7.52 34.4-6.42L34.4-6.42Q34.4-5.47 34.46-4.55 34.52-3.64 34.61-2.81 34.69-1.98 34.8-1.26 34.91-0.54 35.01 0L35.01 0Q34.52-0.1 33.41-0.18 32.3-0.27 30.85-0.33 29.39-0.39 27.75-0.45 26.1-0.51 24.52-0.55 22.95-0.59 21.58-0.6 20.21-0.61 19.34-0.61L19.34-0.61Q18.46-0.61 17-0.6 15.55-0.59 13.83-0.55 12.11-0.51 10.3-0.45 8.5-0.39 6.91-0.33 5.32-0.27 4.13-0.18 2.93-0.1 2.44 0ZM40.01-6.54L40.01-6.54Q40.48-7.18 40.87-9.14 41.26-11.11 41.26-14.5L41.26-14.5Q41.26-16.04 40.84-16.86 40.43-17.68 39.65-17.94L39.65-17.94Q40.09-18.07 40.4-18.51 40.72-18.95 40.94-19.58 41.16-20.21 41.26-20.98 41.35-21.75 41.35-22.56L41.35-22.56Q41.35-24.66 41-26.28 40.65-27.91 40.01-28.61L40.01-28.61 40.21-28.61Q41.01-28.61 42.01-28.98 43.02-29.35 44.04-29.94 45.07-30.54 46.03-31.29 46.99-32.03 47.76-32.81 48.53-33.59 49.02-34.34 49.51-35.08 49.56-35.64L49.56-35.64Q50.36-35.21 52.38-34.75 54.39-34.3 57.69-34.3L57.69-34.3Q58.47-34.3 59.36-34.4 60.25-34.5 61.09-34.68 61.94-34.86 62.67-35.11 63.4-35.35 63.86-35.64L63.86-35.64Q64.11-34.89 64.6-34.09 65.09-33.3 65.79-32.74L65.79-32.74Q66.48-33.28 66.78-33.96 67.09-34.64 67.21-35.16L67.21-35.16Q67.43-35.03 67.89-34.95 68.36-34.86 68.97-34.8 69.58-34.74 70.29-34.7 70.99-34.67 71.73-34.67L71.73-34.67Q72.17-34.67 72.75-34.7 73.34-34.74 73.94-34.8 74.53-34.86 75.1-34.95 75.66-35.03 76.07-35.16L76.07-35.16Q76.02-34.96 75.91-34.4 75.8-33.84 75.71-33.11 75.61-32.37 75.53-31.54 75.46-30.71 75.46-29.96L75.46-29.96Q75.46-28.39 75.53-27 75.61-25.61 75.69-24.49 75.78-23.36 75.89-22.56 76-21.75 76.07-21.36L76.07-21.36Q75.49-21.46 74.81-21.52 74.14-21.58 73.45-21.63 72.75-21.68 72.09-21.7 71.43-21.73 70.92-21.73L70.92-21.73Q67.94-21.73 65.57-21.36L65.57-21.36Q65.57-23.02 65.13-24.51 64.69-26 63.86-27.11 63.03-28.22 61.81-28.88 60.59-29.54 59.03-29.54L59.03-29.54Q58.18-29.54 57.32-29.39 56.47-29.25 55.67-28.8 54.88-28.34 54.21-27.51 53.54-26.68 53.04-25.31 52.54-23.93 52.26-21.92 51.98-19.92 51.98-17.14L51.98-17.14Q51.98-13.6 52.52-11.32 53.07-9.03 54.03-7.71 54.98-6.4 56.26-5.88 57.54-5.37 59.03-5.37L59.03-5.37Q60.52-5.37 61.66-5.99 62.79-6.62 63.56-7.71 64.33-8.81 64.72-10.33 65.11-11.84 65.11-13.65L65.11-13.65Q65.11-13.87 65.1-14.09 65.09-14.31 65.09-14.53L65.09-14.53Q65.92-14.36 66.6-14.23 67.28-14.11 67.94-14.04 68.6-13.96 69.32-13.94 70.04-13.92 70.94-13.92L70.94-13.92Q72.51-13.92 73.85-14.09 75.19-14.26 76.07-14.53L76.07-14.53Q75.93-14.23 75.82-13.65 75.71-13.06 75.62-12.3 75.53-11.55 75.5-10.71 75.46-9.86 75.46-9.06L75.46-9.06Q75.46-8.08 75.64-7.01 75.83-5.93 76.07-4.96L76.07-4.96Q73.92-4.93 72.29-4.28 70.65-3.64 69.52-2.77 68.38-1.9 67.73-1.05 67.09-0.2 66.92 0.24L66.92 0.24Q66.4 0.05 65.72-0.11 65.04-0.27 64.12-0.38 63.21-0.49 62.01-0.55 60.81-0.61 59.27-0.61L59.27-0.61Q57.64-0.61 56.04-0.52 54.44-0.44 53.1-0.28 51.76-0.12 50.78 0.07 49.8 0.27 49.41 0.49L49.41 0.49Q49.12-0.63 48.11-1.83 47.09-3.03 45.74-4.03 44.38-5.03 42.86-5.71 41.33-6.4 40.01-6.54ZM80.73 0L80.73 0Q80.88-0.61 80.99-1.48 81.1-2.34 81.1-3.27L81.1-3.27Q81.1-4.13 80.98-4.94 80.85-5.76 80.73-6.35L80.73-6.35Q81.95-6.35 82.8-6.52 83.64-6.69 84.17-7.09 84.71-7.5 84.94-8.19 85.18-8.89 85.18-9.94L85.18-9.94Q85.18-11.99 85.07-13.45 84.96-14.92 84.75-15.87 84.54-16.82 84.22-17.32 83.91-17.82 83.49-17.94L83.49-17.94Q83.93-18.09 84.25-18.47 84.57-18.85 84.77-19.7 84.98-20.56 85.08-21.98 85.18-23.41 85.18-25.66L85.18-25.66Q85.18-26.64 84.89-27.25 84.61-27.86 84.1-28.21 83.59-28.56 82.86-28.69 82.12-28.81 81.22-28.81L81.22-28.81 80.73-28.81Q80.85-29.39 80.98-30.16 81.1-30.93 81.1-31.79L81.1-31.79Q81.1-32.69 80.99-33.62 80.88-34.55 80.73-35.16L80.73-35.16Q81.2-34.99 82.18-34.84 83.17-34.69 84.46-34.57 85.74-34.45 87.2-34.38 88.67-34.3 90.06-34.3L90.06-34.3Q91.45-34.3 92.9-34.38 94.36-34.45 95.64-34.57 96.92-34.69 97.92-34.84 98.92-34.99 99.41-35.16L99.41-35.16Q99.26-34.55 99.15-33.62 99.04-32.69 99.04-31.79L99.04-31.79Q99.04-30.93 99.16-30.16 99.29-29.39 99.41-28.81L99.41-28.81 98.95-28.81Q98.12-28.81 97.39-28.69 96.67-28.56 96.14-28.21 95.6-27.86 95.28-27.25 94.97-26.64 94.97-25.66L94.97-25.66Q94.97-23.97 95.01-22.8 95.06-21.63 95.19-20.78L95.19-20.78Q96.58-20.51 98.36-20.39 100.14-20.26 102.05-20.26L102.05-20.26Q103.95-20.26 105.72-20.4 107.49-20.53 108.88-20.8L108.88-20.8Q109-21.66 109.05-22.84 109.1-24.02 109.1-25.66L109.1-25.66Q109.1-26.64 108.82-27.25 108.54-27.86 108.03-28.21 107.51-28.56 106.78-28.69 106.05-28.81 105.15-28.81L105.15-28.81 104.66-28.81Q104.78-29.39 104.9-30.16 105.02-30.93 105.02-31.79L105.02-31.79Q105.02-32.69 104.91-33.62 104.8-34.55 104.66-35.16L104.66-35.16Q105.12-34.99 106.11-34.84 107.1-34.69 108.38-34.57 109.66-34.45 111.13-34.38 112.59-34.3 113.98-34.3L113.98-34.3Q115.38-34.3 116.83-34.38 118.28-34.45 119.56-34.57 120.84-34.69 121.85-34.84 122.85-34.99 123.33-35.16L123.33-35.16Q123.19-34.55 123.08-33.62 122.97-32.69 122.97-31.79L122.97-31.79Q122.97-30.93 123.09-30.16 123.21-29.39 123.33-28.81L123.33-28.81 122.87-28.81Q122.04-28.81 121.32-28.69 120.6-28.56 120.06-28.21 119.53-27.86 119.21-27.25 118.89-26.64 118.89-25.66L118.89-25.66Q118.89-23.41 118.99-21.98 119.09-20.56 119.29-19.7 119.5-18.85 119.82-18.47 120.14-18.09 120.58-17.94L120.58-17.94Q120.16-17.82 119.84-17.32 119.53-16.82 119.32-15.87 119.11-14.92 119-13.45 118.89-11.99 118.89-9.94L118.89-9.94Q118.89-8.89 119.17-8.19 119.45-7.5 120.01-7.09 120.58-6.69 121.41-6.52 122.24-6.35 123.33-6.35L123.33-6.35Q123.21-5.76 123.09-4.94 122.97-4.13 122.97-3.27L122.97-3.27Q122.97-2.34 123.08-1.48 123.19-0.61 123.33 0L123.33 0Q122.63-0.15 121.55-0.26 120.48-0.37 119.21-0.45 117.94-0.54 116.58-0.57 115.23-0.61 113.98-0.61L113.98-0.61Q112.74-0.61 111.38-0.57 110.03-0.54 108.76-0.45 107.49-0.37 106.42-0.26 105.34-0.15 104.66 0L104.66 0Q104.8-0.61 104.91-1.48 105.02-2.34 105.02-3.27L105.02-3.27Q105.02-4.13 104.9-4.94 104.78-5.76 104.66-6.35L104.66-6.35Q105.88-6.35 106.72-6.52 107.56-6.69 108.1-7.09 108.64-7.5 108.87-8.19 109.1-8.89 109.1-9.94L109.1-9.94Q109.1-12.84 108.88-14.65L108.88-14.65Q107.49-14.94 105.73-15.1 103.97-15.26 102.05-15.26L102.05-15.26Q100.21-15.26 98.41-15.11 96.6-14.97 95.19-14.7L95.19-14.7Q94.97-12.89 94.97-9.94L94.97-9.94Q94.97-8.89 95.25-8.19 95.53-7.5 96.09-7.09 96.65-6.69 97.48-6.52 98.31-6.35 99.41-6.35L99.41-6.35Q99.29-5.76 99.16-4.94 99.04-4.13 99.04-3.27L99.04-3.27Q99.04-2.34 99.15-1.48 99.26-0.61 99.41 0L99.41 0Q98.7-0.15 97.63-0.26 96.55-0.37 95.28-0.45 94.01-0.54 92.66-0.57 91.3-0.61 90.06-0.61L90.06-0.61Q88.81-0.61 87.46-0.57 86.1-0.54 84.83-0.45 83.56-0.37 82.49-0.26 81.42-0.15 80.73 0ZM127.36-6.54L127.36-6.54Q127.82-7.18 128.22-9.14 128.61-11.11 128.61-14.5L128.61-14.5Q128.61-16.04 128.19-16.86 127.78-17.68 126.99-17.94L126.99-17.94Q127.43-18.07 127.75-18.51 128.07-18.95 128.29-19.58 128.51-20.21 128.61-20.98 128.7-21.75 128.7-22.56L128.7-22.56Q128.7-24.66 128.35-26.28 128-27.91 127.36-28.61L127.36-28.61 127.56-28.61Q128.39-28.61 129.4-28.98 130.41-29.35 131.46-29.94 132.51-30.54 133.51-31.29 134.51-32.03 135.31-32.81 136.1-33.59 136.6-34.34 137.1-35.08 137.15-35.64L137.15-35.64Q137.54-35.42 138.36-35.19 139.18-34.96 140.31-34.75 141.45-34.55 142.85-34.42 144.26-34.3 145.79-34.3L145.79-34.3Q147.33-34.3 148.74-34.42 150.14-34.55 151.27-34.75 152.41-34.96 153.23-35.19 154.05-35.42 154.44-35.64L154.44-35.64Q154.48-35.08 154.99-34.34 155.49-33.59 156.28-32.81 157.07-32.03 158.07-31.29 159.07-30.54 160.12-29.94 161.17-29.35 162.19-28.98 163.2-28.61 164.03-28.61L164.03-28.61 164.23-28.61Q163.59-27.91 163.24-26.28 162.88-24.66 162.88-22.56L162.88-22.56Q162.88-21.75 162.98-20.98 163.08-20.21 163.3-19.58 163.52-18.95 163.84-18.51 164.15-18.07 164.59-17.94L164.59-17.94Q163.81-17.68 163.4-16.86 162.98-16.04 162.98-14.5L162.98-14.5Q162.98-11.11 163.37-9.14 163.76-7.18 164.23-6.54L164.23-6.54Q162.91-6.4 161.35-5.71 159.78-5.03 158.38-4.03 156.97-3.03 155.93-1.84 154.88-0.66 154.58 0.49L154.58 0.49Q154.19 0.27 153.35 0.07 152.51-0.12 151.35-0.28 150.19-0.44 148.76-0.52 147.33-0.61 145.79-0.61L145.79-0.61Q144.26-0.61 142.83-0.52 141.4-0.44 140.24-0.28 139.08-0.12 138.24 0.07 137.39 0.27 137 0.49L137 0.49Q136.71-0.66 135.66-1.84 134.61-3.03 133.21-4.03 131.8-5.03 130.24-5.71 128.68-6.4 127.36-6.54ZM145.79-5.37L145.79-5.37Q147.16-5.37 148.34-5.85 149.53-6.32 150.4-7.63 151.26-8.94 151.76-11.22 152.26-13.5 152.26-17.14L152.26-17.14Q152.26-20 152.01-22.02 151.75-24.05 151.3-25.43 150.85-26.81 150.22-27.62 149.6-28.44 148.88-28.87 148.16-29.3 147.38-29.42 146.6-29.54 145.79-29.54L145.79-29.54Q144.99-29.54 144.21-29.42 143.43-29.3 142.7-28.87 141.98-28.44 141.36-27.62 140.74-26.81 140.29-25.43 139.84-24.05 139.58-22.02 139.32-20 139.32-17.14L139.32-17.14Q139.32-13.5 139.82-11.22 140.32-8.94 141.19-7.63 142.06-6.32 143.24-5.85 144.43-5.37 145.79-5.37Z" opacity="1" transform="matrix(1,0,0,1,0,0)" fill="#ffffff" class="wordmark-text-0" data-fill-palette-color="primary" id="text-0"></path></svg></g></svg></g><g transform="matrix(1,0,0,1,1.5,114.14286894809663)"><svg viewBox="0 0 392.52 33.47248353751005" height="33.47248353751005" width="392.52"><g transform="matrix(1,0,0,1,0,0)"><svg width="392.52" viewBox="0.029999999999999805 -39.84 578.12 50.09" height="33.47248353751005" data-palette-color="#c4f649"><path d="M37.04-35.01L37.04-23.29Q37.04-21.12 36.49-19.41 35.94-17.7 35.03-16.39 34.13-15.09 32.92-14.16 31.71-13.23 30.42-12.63 29.13-12.04 27.8-11.77 26.46-11.5 25.29-11.5L25.29-11.5 22.73-11.5 22.73 0 16.33 0 16.33-11.5 13.79-11.5Q12.62-11.5 11.29-11.77 9.96-12.04 8.65-12.63 7.35-13.23 6.15-14.16 4.96-15.09 4.04-16.39 3.13-17.7 2.58-19.42 2.03-21.14 2.03-23.29L2.03-23.29 2.03-35.01 8.37-35.01 8.37-23.29Q8.37-22.05 8.76-21.06 9.16-20.07 9.86-19.36 10.57-18.65 11.58-18.27 12.6-17.9 13.84-17.9L13.84-17.9 25.29-17.9Q26.2-18.04 27.15-18.27 28.1-18.51 28.88-19.07 29.66-19.63 30.18-20.63 30.69-21.63 30.69-23.29L30.69-23.29 30.69-35.01 37.04-35.01ZM70.46-17.5L70.46-8.91Q70.46-7.28 70.04-5.97 69.63-4.66 68.94-3.67 68.26-2.69 67.36-1.99 66.45-1.29 65.46-0.85 64.48-0.42 63.46-0.21 62.45 0 61.55 0L61.55 0 50.1 0Q48.78 0 47.21-0.46 45.65-0.93 44.32-1.99 42.99-3.05 42.1-4.75 41.21-6.45 41.21-8.91L41.21-8.91 41.21-17.5Q41.21-19.95 42.1-21.64 42.99-23.34 44.32-24.4 45.65-25.46 47.21-25.93 48.78-26.39 50.1-26.39L50.1-26.39 61.55-26.39Q63.99-26.39 65.7-25.51 67.4-24.63 68.45-23.3 69.5-21.97 69.98-20.41 70.46-18.85 70.46-17.5L70.46-17.5ZM64.11-8.91L64.11-17.46Q64.11-18.77 63.45-19.41 62.79-20.04 61.55-20.04L61.55-20.04 50.14-20.04Q48.87-20.04 48.22-19.4 47.56-18.75 47.56-17.5L47.56-17.5 47.56-8.91Q47.56-7.67 48.22-7.01 48.87-6.35 50.14-6.35L50.14-6.35 61.55-6.35Q62.84-6.35 63.47-7.01 64.11-7.67 64.11-8.91L64.11-8.91ZM104.71-26.39L104.71-3.2Q104.71-2.51 104.46-1.93 104.22-1.34 103.79-0.92 103.36-0.49 102.79-0.24 102.22 0 101.56 0L101.56 0 87.2 0Q86.03 0 84.7-0.27 83.37-0.54 82.08-1.14 80.78-1.73 79.57-2.65 78.36-3.56 77.46-4.87 76.56-6.18 76.01-7.89 75.46-9.59 75.46-11.74L75.46-11.74 75.46-26.39 81.81-26.39 81.81-11.74Q81.81-10.5 82.23-9.51 82.66-8.52 83.39-7.81 84.13-7.1 85.11-6.73 86.1-6.35 87.25-6.35L87.25-6.35 98.36-6.35 98.36-26.39 104.71-26.39ZM133.76-26.39L133.76-20.04 119.47-20.04Q118.18-20.04 117.52-19.4 116.86-18.75 116.86-17.5L116.86-17.5 116.86 0 110.51 0 110.51-17.5Q110.51-19.14 110.93-20.43 111.35-21.73 112.04-22.72 112.74-23.71 113.64-24.4 114.54-25.1 115.53-25.54 116.52-25.98 117.53-26.18 118.55-26.39 119.43-26.39L119.43-26.39 133.76-26.39ZM181.8-35.01L188.88-35.01 172.3-1.25Q171.91-0.46 171.14 0.01 170.37 0.49 169.45 0.49L169.45 0.49Q168.54 0.49 167.77 0.01 167-0.46 166.59-1.25L166.59-1.25 150.04-35.01 157.14-35.01 169.45-9.79 181.8-35.01ZM218.74-17.5L218.74-8.91Q218.74-7.28 218.32-5.97 217.9-4.66 217.22-3.67 216.54-2.69 215.63-1.99 214.73-1.29 213.74-0.85 212.75-0.42 211.74-0.21 210.73 0 209.82 0L209.82 0 198.37 0Q197.06 0 195.49-0.46 193.93-0.93 192.6-1.99 191.27-3.05 190.38-4.75 189.49-6.45 189.49-8.91L189.49-8.91 189.49-17.5Q189.49-19.95 190.38-21.64 191.27-23.34 192.6-24.4 193.93-25.46 195.49-25.93 197.06-26.39 198.37-26.39L198.37-26.39 209.82-26.39Q212.27-26.39 213.97-25.51 215.68-24.63 216.73-23.3 217.78-21.97 218.26-20.41 218.74-18.85 218.74-17.5L218.74-17.5ZM212.39-8.91L212.39-17.46Q212.39-18.77 211.73-19.41 211.07-20.04 209.82-20.04L209.82-20.04 198.42-20.04Q197.15-20.04 196.49-19.4 195.83-18.75 195.83-17.5L195.83-17.5 195.83-8.91Q195.83-7.67 196.49-7.01 197.15-6.35 198.42-6.35L198.42-6.35 209.82-6.35Q211.12-6.35 211.75-7.01 212.39-7.67 212.39-8.91L212.39-8.91ZM230.57-37.55L230.57-31.81 224.23-31.81 224.23-37.55 230.57-37.55ZM230.57-26.39L230.57 0 224.23 0 224.23-26.39 230.57-26.39ZM262.21-6.35L262.21 0 245 0Q243.68 0 242.12-0.46 240.56-0.93 239.23-1.99 237.9-3.05 237-4.75 236.11-6.45 236.11-8.91L236.11-8.91 236.11-17.5Q236.11-18.41 236.32-19.41 236.53-20.41 236.97-21.4 237.41-22.39 238.1-23.29 238.8-24.19 239.79-24.88 240.78-25.56 242.07-25.98 243.36-26.39 245-26.39L245-26.39 262.21-26.39 262.21-20.04 245-20.04Q243.75-20.04 243.11-19.41 242.46-18.77 242.46-17.46L242.46-17.46 242.46-8.91Q242.46-7.67 243.12-7.01 243.78-6.35 245.05-6.35L245.05-6.35 262.21-6.35ZM295.66-17.65L295.66-17.65Q295.66-16.33 295.19-14.81 294.73-13.28 293.69-11.98 292.65-10.67 290.98-9.79 289.31-8.91 286.92-8.91L286.92-8.91 275.47-8.91 275.47-14.94 286.92-14.94Q288.21-14.94 288.92-15.73 289.63-16.53 289.63-17.7L289.63-17.7Q289.63-18.95 288.83-19.65 288.04-20.36 286.92-20.36L286.92-20.36 275.47-20.36Q274.17-20.36 273.46-19.57 272.76-18.77 272.76-17.6L272.76-17.6 272.76-8.74Q272.76-7.47 273.55-6.76 274.34-6.05 275.51-6.05L275.51-6.05 286.92-6.05 286.92 0 275.47 0Q274.15 0 272.62-0.46 271.1-0.93 269.79-1.97 268.48-3 267.6-4.68 266.73-6.35 266.73-8.74L266.73-8.74 266.73-17.65Q266.73-18.97 267.19-20.5 267.65-22.02 268.69-23.33 269.73-24.63 271.4-25.51 273.07-26.39 275.47-26.39L275.47-26.39 286.92-26.39Q288.23-26.39 289.76-25.93 291.29-25.46 292.59-24.43 293.9-23.39 294.78-21.72 295.66-20.04 295.66-17.65ZM305.27-7.79L301.49 4.49 297.02 4.49 299.29-7.79 305.27-7.79ZM361.44-31.81L361.44 0 355.1 0 355.1-8.59 332.78-8.59 332.78 0 326.43 0 326.43-17.5Q326.43-21.34 327.75-24.56 329.07-27.78 331.42-30.1 333.76-32.42 336.96-33.72 340.16-35.01 343.94-35.01L343.94-35.01 358.25-35.01Q358.91-35.01 359.49-34.77 360.08-34.52 360.52-34.08 360.96-33.64 361.2-33.06 361.44-32.47 361.44-31.81L361.44-31.81ZM332.78-17.5L332.78-14.94 355.1-14.94 355.1-28.66 343.94-28.66Q343.65-28.66 342.71-28.58 341.77-28.49 340.53-28.15 339.3-27.81 337.93-27.1 336.57-26.39 335.42-25.15 334.27-23.9 333.53-22.03 332.78-20.17 332.78-17.5L332.78-17.5ZM391.67-17.5L391.67 0 385.32 0 385.32-17.5Q385.32-18.75 384.66-19.4 384-20.04 382.71-20.04L382.71-20.04 374.45-20.04 374.45 0 368.11 0 368.11-23.24Q368.11-23.9 368.35-24.48 368.6-25.05 369.03-25.48 369.47-25.9 370.06-26.15 370.65-26.39 371.31-26.39L371.31-26.39 382.76-26.39Q384.07-26.39 385.59-25.93 387.1-25.46 388.47-24.44L388.47-24.44 388.47-26.39 397.06-26.39Q397.97-26.39 398.97-26.18 399.97-25.98 400.96-25.54 401.95-25.1 402.85-24.4 403.75-23.71 404.44-22.72 405.12-21.73 405.53-20.43 405.95-19.14 405.95-17.5L405.95-17.5 405.95 0 399.6 0 399.6-17.5Q399.6-18.75 398.98-19.4 398.36-20.04 397.06-20.04L397.06-20.04 391.35-20.04Q391.67-18.87 391.67-17.5L391.67-17.5ZM440.88-17.5L440.88-8.91Q440.88-7.28 440.47-5.97 440.05-4.66 439.37-3.67 438.69-2.69 437.78-1.99 436.88-1.29 435.89-0.85 434.9-0.42 433.9-0.21 432.9 0 432 0L432 0 420.55 0 420.55-6.35 432-6.35Q433.27-6.35 433.9-7.01 434.54-7.67 434.54-8.91L434.54-8.91 434.54-17.46Q434.54-18.77 433.89-19.41 433.24-20.04 432-20.04L432-20.04 420.59-20.04Q419.3-20.04 418.64-19.4 417.98-18.75 417.98-17.5L417.98-17.5 417.98 8.25 411.63 8.25 411.63-17.5Q411.63-19.14 412.05-20.43 412.47-21.73 413.16-22.72 413.86-23.71 414.76-24.4 415.66-25.1 416.65-25.54 417.64-25.98 418.65-26.18 419.67-26.39 420.55-26.39L420.55-26.39 432-26.39Q433.63-26.39 434.93-25.98 436.22-25.56 437.21-24.88 438.2-24.19 438.89-23.29 439.59-22.39 440.03-21.4 440.47-20.41 440.68-19.41 440.88-18.41 440.88-17.5L440.88-17.5ZM457.9-6.35L457.9 0 455.07 0Q453.7 0 452.15-0.46 450.6-0.93 449.25-1.99 447.91-3.05 447.03-4.75 446.15-6.45 446.15-8.91L446.15-8.91 446.15-37.55 452.5-37.55 452.5-8.91Q452.5-7.74 453.23-7.04 453.97-6.35 455.07-6.35L455.07-6.35 457.9-6.35ZM468.42-37.55L468.42-31.81 462.07-31.81 462.07-37.55 468.42-37.55ZM468.42-26.39L468.42 0 462.07 0 462.07-26.39 468.42-26.39ZM497.86-26.39L497.86-20.04 483.5-20.04 483.5-26.39 497.86-26.39ZM497.86-37.84L497.86-31.49 483.55-31.49Q482.26-31.49 481.6-30.85 480.94-30.2 480.94-28.96L480.94-28.96 480.94 0 474.59 0 474.59-28.96Q474.59-30.59 475.01-31.88 475.42-33.18 476.12-34.17 476.81-35.16 477.72-35.85 478.62-36.55 479.61-36.99 480.6-37.43 481.6-37.63 482.6-37.84 483.5-37.84L483.5-37.84 497.86-37.84ZM508.45-37.55L508.45-31.81 502.1-31.81 502.1-37.55 508.45-37.55ZM508.45-26.39L508.45 0 502.1 0 502.1-26.39 508.45-26.39ZM542.92-17.65L542.92-17.65Q542.92-16.33 542.46-14.81 541.99-13.28 540.96-11.98 539.92-10.67 538.25-9.79 536.57-8.91 534.18-8.91L534.18-8.91 522.73-8.91 522.73-14.94 534.18-14.94Q535.47-14.94 536.18-15.73 536.89-16.53 536.89-17.7L536.89-17.7Q536.89-18.95 536.1-19.65 535.3-20.36 534.18-20.36L534.18-20.36 522.73-20.36Q521.44-20.36 520.73-19.57 520.02-18.77 520.02-17.6L520.02-17.6 520.02-8.74Q520.02-7.47 520.81-6.76 521.61-6.05 522.78-6.05L522.78-6.05 534.18-6.05 534.18 0 522.73 0Q521.41 0 519.89-0.46 518.36-0.93 517.05-1.97 515.75-3 514.87-4.68 513.99-6.35 513.99-8.74L513.99-8.74 513.99-17.65Q513.99-18.97 514.45-20.5 514.92-22.02 515.96-23.33 516.99-24.63 518.67-25.51 520.34-26.39 522.73-26.39L522.73-26.39 534.18-26.39Q535.5-26.39 537.03-25.93 538.55-25.46 539.86-24.43 541.16-23.39 542.04-21.72 542.92-20.04 542.92-17.65ZM576.15-37.55L576.15-8.91Q576.15-7.28 575.73-5.97 575.32-4.66 574.63-3.67 573.95-2.69 573.05-1.99 572.14-1.29 571.15-0.85 570.16-0.42 569.15-0.21 568.14 0 567.24 0L567.24 0 555.78 0Q554.15 0 552.86-0.42 551.56-0.83 550.57-1.53 549.58-2.22 548.89-3.13 548.19-4.03 547.75-5.02 547.31-6.01 547.11-7.02 546.9-8.03 546.9-8.91L546.9-8.91 546.9-17.5Q546.9-19.95 547.79-21.64 548.68-23.34 550.01-24.4 551.34-25.46 552.9-25.93 554.47-26.39 555.78-26.39L555.78-26.39 567.24-26.39 567.24-20.04 555.83-20.04Q554.56-20.04 553.91-19.4 553.25-18.75 553.25-17.5L553.25-17.5 553.25-8.96Q553.25-7.67 553.89-7.01 554.54-6.35 555.78-6.35L555.78-6.35 567.24-6.35Q568.53-6.35 569.16-7.01 569.8-7.67 569.8-8.91L569.8-8.91 569.8-37.55 576.15-37.55Z" opacity="1" transform="matrix(1,0,0,1,0,0)" fill="#ffffff" class="slogan-text-1" data-fill-palette-color="secondary" id="text-1"></path></svg></g></svg></g></svg></g></svg></g><g><svg viewBox="0 0 228.81193179941886 228.81193179941886" height="228.81193179941886" width="228.81193179941886"><g><svg></svg></g><g id="icon-0"><svg viewBox="0 0 228.81193179941886 228.81193179941886" height="228.81193179941886" width="228.81193179941886"><g><path d="M0 114.406c0-63.185 51.221-114.406 114.406-114.406 63.185 0 114.406 51.221 114.406 114.406 0 63.185-51.221 114.406-114.406 114.406-63.185 0-114.406-51.221-114.406-114.406zM114.406 221.009c58.875 0 106.603-47.728 106.603-106.603 0-58.875-47.728-106.603-106.603-106.603-58.875 0-106.603 47.728-106.603 106.603 0 58.875 47.728 106.603 106.603 106.603z" data-fill-palette-color="accent" fill="#ffffff" stroke="transparent"></path></g><g transform="matrix(1,0,0,1,53.099803986421996,53.294426722654656)"><svg viewBox="0 0 122.61232382657487 122.22307835410955" height="122.22307835410955" width="122.61232382657487"><g><svg xmlns="http://www.w3.org/2000/svg" xmlns:xlink="http://www.w3.org/1999/xlink" version="1.1" x="0" y="0" viewBox="1 1.2 126 125.6" enable-background="new 0 0 128 128" xml:space="preserve" height="122.22307835410955" width="122.61232382657487" class="icon-dxe-0" data-fill-palette-color="accent" id="dxe-0"><g fill="#c4f649" data-fill-palette-color="accent"><path fill="#ffffff" d="M26.9 18C12.6 18 1 29.7 1 44S12.6 69.9 26.9 69.9H56.9V18z" data-fill-palette-color="accent"></path><path fill="#ffffff" d="M110.5 24.7V62.8C120 60.7 127 53 127 43.7 127 34.6 120 26.8 110.5 24.7" data-fill-palette-color="accent"></path><path fill="#ffffff" d="M64.7 119.1C63.4 119.1 62.2 118.1 62 116.8L60 104.4H65V86.4H57.1L55.2 75H27.8L35.6 123.4C35.9 125.4 37.6 126.8 39.6 126.8H64.6C66.7 126.8 68.4 125.1 68.4 123 68.5 120.8 66.8 119.1 64.7 119.1" data-fill-palette-color="accent"></path><polygon fill="#ffffff" points="62,16.3 62,71.3 105.4,86.4 105.4,1.2  " data-fill-palette-color="accent"></polygon></g></svg></g></svg></g></svg></g></svg></g></svg></g><defs></defs></svg><rect width="395.52" height="136.05139452572598" fill="none" stroke="none" visibility="hidden"></rect></g></svg></g></svg>